<svg width="737" height="215" xmlns="http://www.w3.org/2000/svg"><path d="M697.887 144.313c3.351 0 6.122.811 8.312 2.434 2.19 1.623 3.734 3.859 4.631 6.709h-2.929c-.739-2.005-1.966-3.602-3.681-4.789-1.715-1.188-3.84-1.781-6.373-1.781-1.926 0-3.674.475-5.244 1.425-1.571.95-2.804 2.309-3.701 4.077-.898 1.768-1.346 3.826-1.346 6.175 0 2.348.448 4.4 1.346 6.155.897 1.754 2.13 3.107 3.701 4.057 1.57.95 3.318 1.425 5.244 1.425 2.533 0 4.658-.594 6.373-1.781 1.715-1.188 2.942-2.784 3.681-4.79h2.929c-.897 2.85-2.441 5.086-4.631 6.709-2.19 1.623-4.961 2.435-8.312 2.435-2.56 0-4.843-.607-6.848-1.821-2.006-1.214-3.562-2.896-4.671-5.047-1.108-2.151-1.662-4.598-1.662-7.342 0-2.771.554-5.239 1.662-7.402 1.109-2.164 2.666-3.846 4.671-5.047 2.005-1.201 4.288-1.801 6.848-1.801zm-32.141.277v27.906h-2.811V144.59zm-21.731 20.82a7.546 7.546 0 01-.891 3.583c-.593 1.121-1.51 2.031-2.751 2.731-1.24.699-2.783 1.049-4.631 1.049-1.794 0-3.391-.33-4.789-.99-1.399-.66-2.514-1.563-3.345-2.711a7.673 7.673 0 01-1.445-3.86h2.929c.106.818.409 1.637.911 2.455.501.818 1.227 1.497 2.177 2.038.95.541 2.098.811 3.444.811 1.767 0 3.12-.475 4.057-1.425.936-.949 1.405-2.15 1.405-3.602 0-1.24-.31-2.249-.93-3.028a6.287 6.287 0 00-2.296-1.801c-.911-.422-2.157-.884-3.741-1.385-1.741-.554-3.146-1.088-4.215-1.603-1.069-.515-1.973-1.273-2.712-2.276-.738-1.003-1.108-2.335-1.108-3.998 0-2.111.739-3.826 2.217-5.146 1.478-1.319 3.509-1.979 6.095-1.979 2.639 0 4.731.647 6.274 1.94 1.544 1.293 2.461 2.903 2.751 4.829h-2.968c-.238-1.188-.865-2.243-1.881-3.167-1.016-.923-2.408-1.385-4.176-1.385-1.636 0-2.942.422-3.918 1.267-.977.844-1.465 2.018-1.465 3.522 0 1.188.304 2.151.911 2.89a6.055 6.055 0 002.236 1.702c.884.396 2.091.844 3.622 1.346 1.768.554 3.199 1.095 4.295 1.623 1.095.527 2.025 1.319 2.79 2.375.765 1.055 1.148 2.454 1.148 4.195zm-54.07-20.82v16.902c0 2.982.653 5.172 1.96 6.57 1.306 1.399 3.094 2.098 5.363 2.098 2.27 0 4.044-.699 5.324-2.098 1.28-1.398 1.92-3.588 1.92-6.57V144.59h2.77v16.902c0 3.773-.91 6.597-2.731 8.47-1.82 1.874-4.261 2.811-7.322 2.811-3.062 0-5.502-.937-7.323-2.811-1.821-1.873-2.731-4.697-2.731-8.47V144.59zm-22.522.594v27.312h-2.771v-22.879l-9.46 22.879h-2.494l-9.5-22.8v22.8h-2.81v-27.312h3.285l10.292 23.868 10.212-23.868zm-69.507-.594v2.256h-12.35v10.648h10.688v2.177h-10.688v12.825h-2.81V144.59zm-47.657-.317c2.586 0 4.908.607 6.966 1.821 2.059 1.214 3.675 2.903 4.849 5.067 1.174 2.163 1.762 4.618 1.762 7.362 0 2.744-.588 5.205-1.762 7.382-1.174 2.177-2.79 3.873-4.849 5.086-2.058 1.214-4.38 1.821-6.966 1.821-2.586 0-4.908-.607-6.967-1.821-2.058-1.213-3.674-2.909-4.848-5.086-1.175-2.177-1.762-4.638-1.762-7.382 0-2.744.587-5.199 1.762-7.362 1.174-2.164 2.79-3.853 4.848-5.067 2.059-1.214 4.381-1.821 6.967-1.821zm0 2.573c-2.032 0-3.859.475-5.482 1.425-1.623.95-2.903 2.309-3.84 4.077-.937 1.768-1.405 3.826-1.405 6.175 0 2.349.468 4.407 1.405 6.175.937 1.768 2.217 3.127 3.84 4.077 1.623.95 3.45 1.425 5.482 1.425s3.859-.475 5.482-1.425c1.623-.95 2.903-2.309 3.84-4.077.936-1.768 1.405-3.826 1.405-6.175 0-2.349-.469-4.407-1.405-6.175-.937-1.768-2.217-3.127-3.84-4.077-1.623-.95-3.45-1.425-5.482-1.425zm-64.599 23.433h10.133v2.217H382.85V144.59h2.81zm-35.307-26.006c2.586 0 4.908.607 6.966 1.821 2.059 1.214 3.675 2.903 4.849 5.067 1.174 2.163 1.762 4.618 1.762 7.362 0 2.744-.588 5.205-1.762 7.382-1.174 2.177-2.79 3.873-4.849 5.086-2.058 1.214-4.38 1.821-6.966 1.821-2.586 0-4.908-.607-6.967-1.821-2.058-1.213-3.674-2.909-4.849-5.086-1.174-2.177-1.761-4.638-1.761-7.382 0-2.744.587-5.199 1.761-7.362 1.175-2.164 2.791-3.853 4.849-5.067 2.059-1.214 4.381-1.821 6.967-1.821zm0 2.573c-2.032 0-3.86.475-5.482 1.425-1.623.95-2.903 2.309-3.84 4.077-.937 1.768-1.405 3.826-1.405 6.175 0 2.349.468 4.407 1.405 6.175.937 1.768 2.217 3.127 3.84 4.077 1.622.95 3.45 1.425 5.482 1.425s3.859-.475 5.482-1.425c1.623-.95 2.903-2.309 3.839-4.077.937-1.768 1.406-3.826 1.406-6.175 0-2.349-.469-4.407-1.406-6.175-.936-1.768-2.216-3.127-3.839-4.077-1.623-.95-3.45-1.425-5.482-1.425zm-45.164-2.573c2.586 0 4.908.607 6.967 1.821 2.058 1.214 3.674 2.903 4.849 5.067 1.174 2.163 1.761 4.618 1.761 7.362 0 2.744-.587 5.205-1.761 7.382-1.175 2.177-2.791 3.873-4.849 5.086-2.059 1.214-4.381 1.821-6.967 1.821-2.586 0-4.908-.607-6.966-1.821-2.059-1.213-3.675-2.909-4.849-5.086-1.174-2.177-1.762-4.638-1.762-7.382 0-2.744.588-5.199 1.762-7.362 1.174-2.164 2.79-3.853 4.849-5.067 2.058-1.214 4.38-1.821 6.966-1.821zm0 2.573c-2.032 0-3.859.475-5.482 1.425-1.623.95-2.903 2.309-3.84 4.077-.936 1.768-1.405 3.826-1.405 6.175 0 2.349.469 4.407 1.405 6.175.937 1.768 2.217 3.127 3.84 4.077 1.623.95 3.45 1.425 5.482 1.425s3.859-.475 5.482-1.425c1.623-.95 2.903-2.309 3.84-4.077.937-1.768 1.405-3.826 1.405-6.175 0-2.349-.468-4.407-1.405-6.175-.937-1.768-2.217-3.127-3.84-4.077-1.623-.95-3.45-1.425-5.482-1.425zm-32.576-2.256v27.906h-2.771v-13.221h-15.12v13.221h-2.811V144.59h2.811v12.389h15.12V144.59zm-52.566-.277c3.352 0 6.122.811 8.313 2.434 2.19 1.623 3.734 3.859 4.631 6.709h-2.929c-.739-2.005-1.966-3.602-3.681-4.789-1.716-1.188-3.84-1.781-6.373-1.781-1.927 0-3.675.475-5.245 1.425-1.57.95-2.804 2.309-3.701 4.077-.897 1.768-1.346 3.826-1.346 6.175 0 2.348.449 4.4 1.346 6.155.897 1.754 2.131 3.107 3.701 4.057 1.57.95 3.318 1.425 5.245 1.425 2.533 0 4.657-.594 6.373-1.781 1.715-1.188 2.942-2.784 3.681-4.79h2.929c-.897 2.85-2.441 5.086-4.631 6.709-2.191 1.623-4.961 2.435-8.313 2.435-2.559 0-4.842-.607-6.847-1.821-2.006-1.214-3.563-2.896-4.671-5.047s-1.663-4.598-1.663-7.342c0-2.771.555-5.239 1.663-7.402 1.108-2.164 2.665-3.846 4.671-5.047 2.005-1.201 4.288-1.801 6.847-1.801zm-31.191 21.097a7.557 7.557 0 01-.89 3.583c-.594 1.121-1.511 2.031-2.751 2.731-1.241.699-2.784 1.049-4.631 1.049-1.795 0-3.391-.33-4.79-.99-1.398-.66-2.513-1.563-3.345-2.711a7.672 7.672 0 01-1.444-3.86h2.929c.105.818.409 1.637.91 2.455.502.817 1.227 1.497 2.177 2.038.95.541 2.098.811 3.444.811 1.768 0 3.12-.475 4.057-1.425.937-.949 1.405-2.15 1.405-3.602 0-1.24-.31-2.249-.93-3.028a6.271 6.271 0 00-2.296-1.801c-.91-.422-2.157-.884-3.74-1.385-1.742-.554-3.147-1.088-4.216-1.603-1.069-.515-1.972-1.273-2.711-2.276-.739-1.003-1.108-2.335-1.108-3.998 0-2.111.738-3.826 2.216-5.146 1.478-1.319 3.51-1.979 6.096-1.979 2.639 0 4.73.647 6.274 1.94 1.543 1.293 2.46 2.903 2.751 4.829h-2.969c-.238-1.188-.864-2.243-1.88-3.167-1.016-.923-2.408-1.385-4.176-1.385-1.636 0-2.943.422-3.919 1.267-.976.844-1.464 2.018-1.464 3.522 0 1.188.303 2.151.91 2.89a6.055 6.055 0 002.236 1.702c.884.396 2.092.844 3.622 1.346 1.768.554 3.2 1.095 4.295 1.623 1.095.527 2.025 1.319 2.79 2.375.766 1.055 1.148 2.454 1.148 4.195z" fill="#fff"/><path d="M674.845 62.83h35.681v15.889h-16.342v6.718h16.07v15.072h-16.07v6.991h16.978v15.889h-36.317zm-44.307 41.765c1.332.423 2.724.756 4.177.998 1.21.303 2.587.545 4.131.727 1.543.181 3.102.272 4.676.272 2.784 0 4.176-1.029 4.176-3.087 0-.787-.424-1.589-1.271-2.406-.847-.817-1.922-1.725-3.223-2.724a176.08 176.08 0 01-4.177-3.314 30.232 30.232 0 01-4.176-4.176 21.839 21.839 0 01-3.223-5.311c-.847-1.968-1.271-4.222-1.271-6.764 0-2.845.514-5.357 1.543-7.536 1.029-2.179 2.452-3.995 4.267-5.448 1.816-1.452 3.95-2.557 6.401-3.314 2.452-.756 5.07-1.135 7.854-1.135 1.452 0 2.905.076 4.358.227l3.904.409c1.332.182 2.633.363 3.904.545v16.978a67.068 67.068 0 00-1.634-.182 66.99 66.99 0 00-1.635-.181 19.014 19.014 0 00-1.906-.091c-.363 0-.817.015-1.362.045a8.318 8.318 0 00-1.544.227 3.14 3.14 0 00-1.27.636c-.364.303-.545.726-.545 1.271 0 .484.408 1.089 1.225 1.816.817.726 1.816 1.574 2.997 2.542 1.18.968 2.481 2.088 3.904 3.359a27.133 27.133 0 013.904 4.358c1.18 1.635 2.179 3.481 2.996 5.539.817 2.058 1.226 4.358 1.226 6.9 0 2.663-.424 5.16-1.272 7.49a15.898 15.898 0 01-3.949 6.083c-1.786 1.725-4.071 3.087-6.855 4.086-2.784.999-6.083 1.498-9.896 1.498-2.3 0-4.434-.106-6.401-.318-1.967-.212-3.707-.469-5.221-.771a43.889 43.889 0 01-4.812-1.09zm-31.141 20.337c-3.814 0-7.264-.484-10.351-1.453-3.087-.968-5.72-2.421-7.899-4.358-2.179-1.937-3.858-4.388-5.039-7.354-1.18-2.966-1.77-6.446-1.77-10.441V62.83h19.339v37.679c0 2.118.438 3.738 1.316 4.857.878 1.12 2.346 1.68 4.404 1.68s3.525-.56 4.403-1.68c.878-1.119 1.317-2.739 1.317-4.857V62.83h19.429v38.496c0 3.995-.59 7.475-1.77 10.441-1.181 2.966-2.875 5.417-5.085 7.354-2.209 1.937-4.857 3.39-7.944 4.358-3.087.969-6.537 1.453-10.35 1.453zm-95.151-31.777c0-4.358.833-8.474 2.497-12.348 1.665-3.874 3.934-7.248 6.81-10.123 2.875-2.875 6.249-5.145 10.123-6.81 3.874-1.664 7.99-2.497 12.348-2.497 4.358 0 8.474.833 12.347 2.497 3.874 1.665 7.249 3.935 10.124 6.81 2.875 2.875 5.145 6.249 6.809 10.123 1.665 3.874 2.497 7.99 2.497 12.348 0 4.358-.832 8.474-2.497 12.348-1.664 3.873-3.934 7.248-6.809 10.123-2.875 2.875-6.25 5.145-10.124 6.809-3.873 1.665-7.989 2.497-12.347 2.497s-8.474-.832-12.348-2.497c-3.874-1.664-7.248-3.934-10.123-6.809-2.876-2.875-5.145-6.25-6.81-10.123-1.664-3.874-2.497-7.99-2.497-12.348zm19.067 0c0 1.755.333 3.404.998 4.948a12.86 12.86 0 002.724 4.04 12.852 12.852 0 004.041 2.724c1.543.666 3.192.999 4.948.999 1.755 0 3.404-.333 4.948-.999a12.86 12.86 0 004.04-2.724 12.86 12.86 0 002.724-4.04c.666-1.544.999-3.193.999-4.948 0-1.756-.333-3.405-.999-4.948a12.852 12.852 0 00-2.724-4.041 12.84 12.84 0 00-4.04-2.723c-1.544-.666-3.193-.999-4.948-.999-1.756 0-3.405.333-4.948.999a12.833 12.833 0 00-4.041 2.723 12.852 12.852 0 00-2.724 4.041c-.665 1.543-.998 3.192-.998 4.948zM447.864 62.83h19.339v20.61h10.804V62.83h19.43v60.559h-19.43v-22.426h-10.804v22.426h-19.339zm-78.898 30.325c0-4.843.847-9.216 2.542-13.12 1.695-3.904 3.995-7.248 6.9-10.032 2.906-2.784 6.295-4.918 10.169-6.401 3.874-1.483 7.99-2.225 12.348-2.225 3.45 0 6.522.333 9.215.999 2.694.666 5.009 1.423 6.946 2.27 2.239.968 4.176 2.028 5.81 3.178l-9.533 16.796a32.008 32.008 0 00-3.178-2.088c-1.028-.484-2.254-.953-3.676-1.407-1.423-.454-3.042-.681-4.858-.681-1.876 0-3.601.333-5.175.999a13.239 13.239 0 00-4.131 2.723 12.49 12.49 0 00-2.769 4.041c-.666 1.543-.999 3.192-.999 4.948a11.9 11.9 0 001.044 4.948 12.752 12.752 0 002.86 4.04c1.211 1.15 2.633 2.058 4.267 2.724 1.635.666 3.42.999 5.357.999 1.937 0 3.662-.242 5.175-.727 1.513-.484 2.785-1.029 3.813-1.634a14.026 14.026 0 003.178-2.36l9.533 16.796c-1.634 1.332-3.571 2.512-5.81 3.541-1.937.847-4.267 1.634-6.991 2.361-2.724.726-5.841 1.089-9.352 1.089-4.721 0-9.079-.772-13.074-2.315-3.995-1.544-7.445-3.708-10.35-6.492-2.906-2.784-5.175-6.128-6.81-10.032-1.634-3.904-2.451-8.217-2.451-12.938zM341.637 62.83h20.52v60.559h-20.52zm-44.306 41.765a30.13 30.13 0 004.176.998c1.211.303 2.588.545 4.131.727 1.544.181 3.102.272 4.676.272 2.784 0 4.176-1.029 4.176-3.087 0-.787-.423-1.589-1.271-2.406-.847-.817-1.921-1.725-3.223-2.724a176.134 176.134 0 01-4.176-3.314 30.238 30.238 0 01-4.177-4.176 21.87 21.87 0 01-3.223-5.311c-.847-1.968-1.271-4.222-1.271-6.764 0-2.845.515-5.357 1.544-7.536 1.029-2.179 2.451-3.995 4.267-5.448 1.816-1.452 3.949-2.557 6.401-3.314 2.451-.756 5.069-1.135 7.853-1.135 1.453 0 2.906.076 4.358.227l3.904.409c1.332.182 2.633.363 3.904.545v16.978a66.515 66.515 0 00-1.634-.182 67.425 67.425 0 00-1.634-.181 19.034 19.034 0 00-1.907-.091c-.363 0-.817.015-1.362.045a8.307 8.307 0 00-1.543.227 3.144 3.144 0 00-1.271.636c-.363.303-.545.726-.545 1.271 0 .484.409 1.09 1.226 1.816s1.816 1.574 2.996 2.542a122.69 122.69 0 013.904 3.359 27.085 27.085 0 013.904 4.358c1.18 1.635 2.179 3.481 2.996 5.539.817 2.058 1.226 4.358 1.226 6.9 0 2.663-.424 5.16-1.271 7.49a15.912 15.912 0 01-3.95 6.083c-1.785 1.725-4.07 3.087-6.855 4.086-2.784.999-6.082 1.498-9.896 1.498-2.3 0-4.433-.106-6.401-.318-1.967-.212-3.707-.469-5.22-.771a43.783 43.783 0 01-4.812-1.09zm-31.142 20.337c-3.813 0-7.263-.484-10.35-1.453-3.087-.968-5.72-2.421-7.899-4.358-2.179-1.937-3.859-4.388-5.039-7.354-1.18-2.966-1.771-6.446-1.771-10.441V62.83h19.339v37.679c0 2.118.439 3.738 1.317 4.857.877 1.12 2.345 1.68 4.403 1.68 2.058 0 3.526-.56 4.403-1.68.878-1.119 1.317-2.739 1.317-4.857V62.83h19.429v38.496c0 3.995-.59 7.475-1.77 10.441-1.18 2.966-2.875 5.417-5.084 7.354-2.21 1.937-4.858 3.39-7.945 4.358-3.087.969-6.537 1.453-10.35 1.453zM169.768 62.83h15.979l15.798 23.243 15.707-23.243h15.979v60.559h-19.338v-21.791l-12.348 18.159-12.439-18.159v21.791h-19.338z" fill="#e56838"/><path d="M711.701 134.274H171.029" fill="none" stroke="#fff" stroke-width="2" stroke-linejoin="round"/><path d="M156.146 108.296c0-34.991-28.365-63.357-63.356-63.357s-63.356 28.366-63.356 63.357c0 34.99 28.365 63.356 63.356 63.356s63.356-28.366 63.356-63.356z" fill="#fff"/><path d="M88.39 44.079c-6.524.5-13.125 1.999-19.033 4.319-2.115.833-6.344 2.871-8.331 3.999-8.087 4.627-15.265 11.137-20.686 18.776-9.138 12.855-13.278 28.915-11.484 44.551 1.474 12.791 6.537 24.506 14.944 34.541 2.474 2.935 6.332 6.626 9.69 9.254 1.666 1.294 5.601 3.934 7.472 5.011a64.455 64.455 0 0047.576 6.549c2.563-.64 6.754-2.025 9.074-2.999 5.626-2.371 11.343-5.818 16.187-9.766 2.064-1.692 6.793-6.37 8.446-8.369 9.036-10.959 14.073-23.609 14.97-37.617.513-7.972-.615-16.483-3.178-24.16-1.026-3.063-1.769-4.883-3.153-7.754-3.166-6.549-6.947-11.894-12.125-17.149-3.422-3.499-6.306-5.882-10.189-8.484-8.754-5.845-18.494-9.356-29.158-10.523-2.179-.231-8.831-.346-11.022-.179zm7.754 3.204c10.497.577 20.314 3.678 29.183 9.202 3.858 2.41 7.28 5.153 10.741 8.613 5.114 5.101 8.574 9.92 11.727 16.341 1.987 4.038 3.281 7.537 4.345 11.676 2.909 11.484 2.525 23.545-1.128 34.593-1 2.999-1.743 4.806-3.217 7.818-3.114 6.344-6.6 11.215-11.663 16.277-6.947 6.96-14.816 11.817-24.16 14.919-10.202 3.396-21.942 3.947-32.618 1.538-17.661-3.986-32.76-15.752-41.013-31.965-1.423-2.781-2.5-5.383-3.525-8.523-2.153-6.511-3.076-12.291-3.076-19.212 0-7.075.91-12.817 3.076-19.366 4.255-12.92 12.535-23.852 23.839-31.517 2.563-1.73 4.396-2.794 7.216-4.191a60.652 60.652 0 0130.273-6.203z" fill="#e56838"/><path d="M88.902 53.127c-3.511.321-6.472.795-9.446 1.526-15.29 3.793-28.465 14.226-35.758 28.325-3.153 6.126-5.05 12.393-5.883 19.609-.32 2.666-.32 8.946-.013 11.702 1.025 9.087 3.922 17.213 8.767 24.62 3.383 5.178 8.087 10.19 13.047 13.919 7.972 5.986 16.854 9.536 26.979 10.792 2.359.282 9.6.321 11.984.064 12.932-1.448 24.352-6.882 33.387-15.918 9.011-8.998 14.432-20.186 15.97-33.003.333-2.73.333-9.831.013-12.496-.756-6.063-2.115-11.061-4.473-16.406-5.204-11.791-14.803-21.698-26.556-27.376-5.524-2.666-11.125-4.294-17.636-5.127-1.538-.192-8.946-.359-10.382-.231zM79.649 74.89c1.102.295 3.101 1.243 3.101 1.487 0 .038-.32.397-.692.807-.871.923-1.563 2.269-1.679 3.256-.051.474-1.768 5.613-4.639 13.932l-4.563 13.201.154.82c.282 1.525 1.128 2.832 2.499 3.832.423.308.846.615.948.667.154.089-.282 1.538-2.435 8.1-1.448 4.396-2.691 8.395-2.768 8.882-.192 1.243-.782 2.358-1.756 3.319-2.589 2.602-7.088 3.192-10.689 1.41-1.987-.987-3.55-3.025-3.691-4.832-.064-.756.166-1.487 7.818-24.749 4.665-14.201 7.908-24.249 7.959-24.672.205-1.999 2.089-4.076 4.588-5.088 1.679-.679 4.05-.833 5.845-.372zm22.903.013c.961.243 2.666 1.077 3.307 1.602l.474.41-.525.59c-.693.782-1.244 1.974-1.41 3.037-.09.513-1.974 6.165-4.627 13.83-4.306 12.432-4.486 12.983-4.435 13.739.077 1.166.757 2.461 1.833 3.499.462.436.833.833.833.884 0 .039-1.205 3.743-2.678 8.216-1.462 4.486-2.743 8.574-2.833 9.087-.449 2.678-2.704 4.845-5.832 5.601-1.153.282-3.293.282-4.485.013-2.948-.693-5.345-2.91-5.832-5.409l-.154-.782 2.525-7.677c1.397-4.217 2.589-7.716 2.666-7.767.077-.038.346-.115.59-.167.256-.038.935-.307 1.525-.589 2.089-1 3.64-2.948 3.832-4.794.051-.525 1.499-4.883 4.614-13.867 2.486-7.203 4.524-13.266 4.524-13.458-.013-1.102-.628-2.512-1.563-3.55l-.616-.705.411-.308c.487-.371 1.576-.922 2.332-1.204 1.538-.564 3.871-.654 5.524-.231zm23.134.064c1.923.551 3.704 1.782 4.614 3.204.474.744.897 2 .897 2.666 0 .269-3.293 10.471-7.869 24.377-4.576 13.906-7.895 24.198-7.946 24.596-.09.884-.782 2.332-1.474 3.114-2.051 2.294-6.037 3.294-9.356 2.333-2.833-.82-5.127-3.179-5.345-5.499-.064-.73.038-1.076 2.41-8.266l2.473-7.485 1.154-.231c3.268-.641 5.69-2.858 6.1-5.55.09-.576 1.782-5.652 4.627-13.893 4.422-12.804 4.486-13.009 4.422-13.804-.09-1.191-.654-2.294-1.73-3.396l-.885-.897.526-.333c.705-.449 1.781-.872 2.64-1.051.385-.077.82-.167.961-.193.577-.141 2.858.052 3.781.308z" fill="#e56838"/></svg>